<?xml version="1.0" encoding="UTF-8" standalone="no" ?>
<!DOCTYPE svg PUBLIC "-//W3C//DTD SVG 1.1//EN" "http://www.w3.org/Graphics/SVG/1.1/DTD/svg11.dtd">
<svg xmlns="http://www.w3.org/2000/svg" xmlns:xlink="http://www.w3.org/1999/xlink" version="1.1" width="1080" height="390" viewBox="0 0 1080 390" xml:space="preserve">
<desc>Created with Fabric.js 5.2.4</desc>
<defs>
</defs>
<g transform="matrix(1 0 0 1 540 195)" id="5a3dd759-89a6-41e3-92aa-5349e14a1789"  >
<rect style="stroke: none; stroke-width: 1; stroke-dasharray: none; stroke-linecap: butt; stroke-dashoffset: 0; stroke-linejoin: miter; stroke-miterlimit: 4; fill: rgb(255,255,255); fill-rule: nonzero; opacity: 1; visibility: hidden;" vector-effect="non-scaling-stroke"  x="-540" y="-195" rx="0" ry="0" width="1080" height="390" />
</g>
<g transform="matrix(0 0 0 0 0 0)" id="d7d96ab1-69e7-4f74-9494-f62cfefbbd96"  >
</g>
<g transform="matrix(14.54 0 0 1.54 546 144.51)" id="b00a7172-3602-4d3e-b430-a5983b7542be"  >
<rect style="stroke: rgb(0,0,0); stroke-width: 0; stroke-dasharray: none; stroke-linecap: butt; stroke-dashoffset: 0; stroke-linejoin: miter; stroke-miterlimit: 4; fill: rgb(255,255,255); fill-rule: nonzero; opacity: 1;" vector-effect="non-scaling-stroke"  x="-33.085" y="-33.085" rx="0" ry="0" width="66.17" height="66.17" />
</g>
<g transform="matrix(13.77 0 0 2.43 508 267.06)" id="b00a7172-3602-4d3e-b430-a5983b7542be"  >
<rect style="stroke: rgb(0,0,0); stroke-width: 0; stroke-dasharray: none; stroke-linecap: butt; stroke-dashoffset: 0; stroke-linejoin: miter; stroke-miterlimit: 4; fill: rgb(255,255,255); fill-rule: nonzero; opacity: 1;" vector-effect="non-scaling-stroke"  x="-33.085" y="-33.085" rx="0" ry="0" width="66.17" height="66.17" />
</g>
<g transform="matrix(1.6 0 0 1.54 145.6 98.51)" id="b00a7172-3602-4d3e-b430-a5983b7542be"  >
<rect style="stroke: rgb(0,0,0); stroke-width: 0; stroke-dasharray: none; stroke-linecap: butt; stroke-dashoffset: 0; stroke-linejoin: miter; stroke-miterlimit: 4; fill: rgb(255,255,255); fill-rule: nonzero; opacity: 1;" vector-effect="non-scaling-stroke"  x="-33.085" y="-33.085" rx="0" ry="0" width="66.17" height="66.17" />
</g>
<g transform="matrix(8.54 0 0 0.89 521 72.01)" id="b00a7172-3602-4d3e-b430-a5983b7542be"  >
<rect style="stroke: rgb(0,0,0); stroke-width: 0; stroke-dasharray: none; stroke-linecap: butt; stroke-dashoffset: 0; stroke-linejoin: miter; stroke-miterlimit: 4; fill: rgb(255,255,255); fill-rule: nonzero; opacity: 1;" vector-effect="non-scaling-stroke"  x="-33.085" y="-33.085" rx="0" ry="0" width="66.17" height="66.17" />
</g>
<g transform="matrix(1.5 0 0 1.5 540.1 195.03)"  >
<g style="" vector-effect="non-scaling-stroke"   >
		<g transform="matrix(1 0 0 1 0 0)"  >
<path style="stroke: none; stroke-width: 1; stroke-dasharray: none; stroke-linecap: butt; stroke-dashoffset: 0; stroke-linejoin: miter; stroke-miterlimit: 4; fill: rgb(0,0,0); fill-rule: nonzero; opacity: 1;" vector-effect="non-scaling-stroke"  transform=" translate(-347.24, -127.55)" d="M 320.733 248.11 C 222.071 248.11 123.41 248.09500000000003 24.74799999999999 248.161 C 20.30699999999999 248.164 16.41999999999999 246.579 13.20599999999999 244.118 C 7.09099999999999 239.435 3.381999999999991 233.283 3.6739999999999906 225.06799999999998 C 3.9669999999999908 216.82899999999998 3.8459999999999908 208.569 3.7009999999999907 200.32199999999997 C 3.6039999999999908 194.79899999999998 5.906999999999991 190.32899999999998 9.313999999999991 186.33199999999997 C 13.146999999999991 181.83499999999998 14.93099999999999 177.17499999999995 12.633999999999991 171.21899999999997 C 9.700999999999992 163.61399999999998 9.40199999999999 155.71899999999997 11.170999999999992 147.72699999999998 C 13.563999999999993 136.914 15.896999999999991 126.08799999999998 18.15599999999999 115.24599999999998 C 20.097999999999992 105.92699999999998 21.83799999999999 96.56599999999997 23.781999999999993 87.24799999999998 C 25.376999999999992 79.60499999999998 27.18799999999999 72.00799999999998 28.81799999999999 64.37199999999997 C 30.84199999999999 54.89199999999997 32.72399999999999 45.38099999999997 34.767999999999994 35.90499999999997 C 36.53999999999999 27.689999999999973 40.120999999999995 20.483999999999973 47.858999999999995 16.40699999999997 C 50.791999999999994 14.861999999999972 54.333999999999996 13.78999999999997 57.623999999999995 13.720999999999972 C 71.44999999999999 13.428999999999972 85.28699999999999 13.535999999999971 99.119 13.625999999999971 C 105.277 13.66599999999997 110.964 15.724999999999971 116.371 18.50499999999997 C 124.027 22.43999999999997 129.581 28.62699999999997 134.49099999999999 35.54199999999997 C 136.713 38.67099999999997 139.96099999999998 38.46099999999997 141.94199999999998 35.110999999999976 C 144.03799999999998 31.565999999999974 145.62999999999997 27.719999999999978 147.772 24.206999999999976 C 151.173 18.629999999999974 156.509 15.561999999999976 162.60999999999999 13.699999999999976 C 163.225 13.511999999999976 163.93099999999998 13.600999999999976 164.595 13.600999999999976 C 179.178 13.596999999999976 193.762 13.465999999999976 208.341 13.700999999999976 C 211.50900000000001 13.751999999999976 214.67600000000002 15.042999999999976 217.805 15.903999999999975 C 221.25900000000001 16.853999999999974 224.695 18.473999999999975 228.29500000000002 17.037999999999975 C 230.752 16.058999999999976 233.00600000000003 14.560999999999975 235.328 13.254999999999976 C 244.46800000000002 8.111999999999977 254.372 6.200999999999976 264.675 7.187999999999976 C 274.483 8.127999999999975 283.56600000000003 11.422999999999977 291.01800000000003 18.189999999999976 C 294.504 21.354999999999976 297.886 21.034999999999975 301.90200000000004 19.182999999999975 C 309.29800000000006 15.773999999999976 317.01900000000006 13.145999999999976 325.15200000000004 12.144999999999975 C 329.88500000000005 11.562999999999974 334.66900000000004 11.275999999999975 339.439 11.128999999999975 C 349.18100000000004 10.828999999999974 358.87600000000003 11.221999999999975 368.42 13.546999999999976 C 372.447 14.527999999999976 376.54400000000004 15.229999999999976 380.619 16.007999999999974 C 384.173 16.686999999999973 387.40500000000003 15.257999999999974 390.72400000000005 14.380999999999974 C 392.05000000000007 14.030999999999974 393.41300000000007 13.749999999999973 394.77600000000007 13.624999999999973 C 396.18100000000004 13.495999999999974 397.6070000000001 13.606999999999973 399.0230000000001 13.594999999999974 C 417.66100000000006 13.430999999999974 436.2990000000001 13.150999999999973 454.93700000000007 13.132999999999974 C 469.32000000000005 13.118999999999975 483.7170000000001 13.130999999999974 498.08200000000005 13.736999999999973 C 504.26700000000005 13.997999999999973 510.11500000000007 16.56099999999997 515.311 20.12199999999997 C 522.4580000000001 25.02199999999997 528.071 31.245999999999974 531.2570000000001 39.42199999999997 C 532.3910000000001 42.33299999999997 533.3620000000001 45.30999999999997 534.3380000000001 48.27999999999997 C 535.0930000000001 50.574999999999974 537.1270000000001 52.007999999999974 539.6500000000001 52.11199999999997 C 550.9900000000001 52.580999999999975 562.1320000000001 54.06799999999998 572.4650000000001 59.16399999999997 C 576.0230000000001 60.918999999999976 579.2320000000002 60.96399999999997 582.5470000000001 58.54799999999997 C 585.8460000000001 56.14299999999997 589.6190000000001 55.055999999999976 593.7710000000002 55.07299999999997 C 609.4370000000002 55.135999999999974 625.1030000000002 55.14599999999997 640.7680000000001 55.053999999999974 C 643.5310000000002 55.037999999999975 646.3520000000001 54.69599999999998 649.0390000000001 54.055999999999976 C 656.2900000000001 52.32899999999998 663.6790000000001 51.824999999999974 670.8840000000001 53.242999999999974 C 679.9150000000001 55.019999999999975 686.9150000000001 59.86199999999997 689.8080000000001 69.29699999999997 C 691.2710000000001 74.07099999999997 691.041 78.70199999999997 689.8890000000001 83.51599999999996 C 687.8240000000001 92.13799999999996 686.2820000000002 100.88499999999996 684.1940000000001 109.49999999999997 C 682.5690000000001 116.20399999999997 681.0780000000001 123.02899999999997 675.3230000000001 127.86899999999997 C 669.9820000000001 132.36099999999996 663.9000000000001 133.73199999999997 657.181 132.89799999999997 C 655.1700000000001 132.64899999999997 653.221 131.84999999999997 651.21 131.64999999999998 C 648.234 131.355 646.465 132.87199999999999 645.782 135.74999999999997 C 644.6750000000001 140.41799999999998 643.4290000000001 145.05499999999998 642.3820000000001 149.73699999999997 C 641.105 155.44799999999998 639.9730000000001 161.19099999999997 638.7800000000001 166.92099999999996 C 637.6190000000001 172.49899999999997 636.3910000000001 178.06399999999996 635.3270000000001 183.66099999999997 C 634.6680000000001 187.12599999999998 634.3460000000001 190.515 635.6260000000001 194.08599999999998 C 636.9010000000001 197.64299999999997 637.772 201.486 637.988 205.25199999999998 C 638.365 211.79299999999998 638.115 218.37199999999999 638.091 224.93399999999997 C 638.087 225.91099999999997 637.794 226.88699999999997 637.785 227.86499999999998 C 637.728 234.159 634.525 238.91899999999998 629.919 242.62599999999998 C 627.127 244.873 621.364 248.10599999999997 617.718 248.10599999999997 C 614.0719999999999 248.10599999999997 419.728 248.11 320.733 248.11 z M 179.025 76.301 C 179.25400000000002 76.313 179.482 76.32600000000001 179.711 76.33800000000001 C 179.607 77.316 179.586 78.311 179.38500000000002 79.269 C 178.53500000000003 83.327 177.59000000000003 87.36500000000001 176.757 91.427 C 175.36700000000002 98.21100000000001 174.06300000000002 105.013 172.671 111.796 C 171.91899999999998 115.459 171.021 119.093 170.25799999999998 122.754 C 168.862 129.446 167.563 136.159 166.13799999999998 142.845 C 164.914 148.589 163.41099999999997 154.22899999999998 164.182 160.26 C 165.29399999999998 168.952 170.046 174.53699999999998 177.97699999999998 177.647 C 184.61799999999997 180.251 191.61499999999998 179.68099999999998 198.51699999999997 179.50799999999998 C 200.20499999999996 179.46599999999998 201.44699999999997 178.23 201.81899999999996 176.11399999999998 C 202.70699999999997 171.06799999999998 203.95599999999996 166.08499999999998 205.02799999999996 161.07099999999997 C 205.79299999999995 157.49199999999996 206.50299999999996 153.90099999999998 207.24899999999997 150.31799999999998 C 208.22899999999996 145.61399999999998 209.20999999999998 140.91099999999997 210.21099999999996 136.21099999999998 C 211.03999999999996 132.319 211.93099999999995 128.44099999999997 212.73699999999997 124.54499999999999 C 214.00499999999997 118.41399999999999 215.16599999999997 112.25999999999999 216.48099999999997 106.13899999999998 C 217.82999999999996 99.85999999999999 219.38399999999996 93.62499999999999 220.71599999999998 87.34299999999999 C 222.338 79.69599999999998 223.60299999999998 71.96799999999999 225.42799999999997 64.37199999999999 C 227.26199999999997 56.73899999999998 226.42899999999997 49.713999999999984 221.66299999999998 43.43799999999999 C 217.48799999999997 37.93999999999999 211.831 34.73999999999999 204.85899999999998 34.64599999999999 C 192.695 34.481999999999985 180.528 34.631999999999984 168.36199999999997 34.56599999999999 C 166.52699999999996 34.55599999999999 165.40599999999998 35.20599999999999 164.68699999999995 36.83299999999999 C 163.57199999999995 39.35499999999999 162.33099999999996 41.82299999999999 161.25799999999995 44.361999999999995 C 156.55099999999996 55.495999999999995 151.90799999999996 66.65599999999999 147.19699999999995 77.78899999999999 C 143.75499999999994 85.92399999999999 140.24899999999994 94.03199999999998 136.76299999999995 102.148 C 134.69699999999995 106.96 132.60599999999994 111.761 130.54099999999994 116.573 C 128.26799999999994 121.869 126.02399999999994 127.17699999999999 123.72799999999994 132.463 C 123.47699999999993 133.04 122.96399999999994 133.504 122.57199999999993 134.01999999999998 C 122.29599999999994 133.39399999999998 121.80299999999993 132.777 121.77799999999993 132.14 C 121.55299999999994 126.50799999999998 121.44799999999994 120.87199999999999 121.23399999999994 115.23999999999998 C 120.93899999999994 107.46599999999998 120.54999999999994 99.69599999999998 120.25399999999993 91.92199999999998 C 119.88899999999994 82.31799999999998 119.69899999999993 72.70499999999998 119.19599999999993 63.10799999999998 C 118.90699999999993 57.59399999999998 118.51999999999992 52.036999999999985 116.15399999999993 46.878999999999984 C 113.14899999999993 40.326999999999984 105.22599999999993 34.780999999999985 97.86399999999992 34.655999999999985 C 85.70199999999991 34.44999999999998 73.53299999999992 34.59999999999999 61.36699999999992 34.59999999999999 C 57.14999999999992 34.59999999999999 56.60799999999992 34.98399999999999 55.75299999999992 39.04399999999999 C 54.81499999999992 43.49699999999999 54.019999999999925 47.97999999999999 53.07099999999992 52.42999999999999 C 52.18999999999992 56.56199999999999 51.14899999999992 60.66 50.24799999999992 64.78899999999999 C 48.94999999999992 70.74199999999999 47.74399999999992 76.71599999999998 46.44599999999992 82.66999999999999 C 45.07699999999992 88.948 43.59999999999992 95.20299999999999 42.25799999999992 101.487 C 41.118999999999915 106.81899999999999 40.14799999999992 112.18599999999999 39.02299999999992 117.52099999999999 C 37.98299999999992 122.45199999999998 36.80999999999992 127.35399999999998 35.74799999999992 132.28099999999998 C 34.71899999999992 137.05199999999996 33.794999999999916 141.84699999999998 32.75499999999992 146.61599999999999 C 31.530999999999917 152.22799999999998 30.282999999999916 157.74599999999998 32.17599999999992 163.546 C 34.30999999999992 170.087 38.46199999999992 174.74099999999999 44.54299999999992 177.54899999999998 C 49.82699999999992 179.98899999999998 55.62499999999992 179.75099999999998 61.288999999999916 179.48799999999997 C 62.301999999999914 179.44099999999997 63.81499999999991 178.05899999999997 64.11999999999992 177.00899999999996 C 65.31799999999991 172.88299999999995 66.15599999999992 168.64899999999994 67.07199999999992 164.44399999999996 C 68.31799999999991 158.72199999999995 69.59599999999992 153.00599999999997 70.71099999999991 147.25799999999995 C 72.30899999999991 139.02199999999996 73.72699999999992 130.75099999999995 75.30799999999991 122.51099999999995 C 76.7329999999999 115.07999999999996 78.28799999999991 107.67499999999995 79.75799999999991 100.25299999999996 C 81.27699999999992 92.58299999999996 82.7509999999999 84.90299999999996 84.29199999999992 77.23799999999996 C 84.38099999999991 76.79399999999995 84.89799999999991 76.43699999999995 85.59499999999991 75.56499999999996 C 85.86599999999991 77.51599999999995 86.13499999999992 78.85999999999996 86.22299999999991 80.21599999999995 C 86.43799999999992 83.51299999999995 86.53799999999991 86.81699999999995 86.73999999999991 90.11499999999995 C 87.22299999999991 98.01799999999996 87.75599999999991 105.91699999999994 88.2329999999999 113.81999999999995 C 88.5959999999999 119.83599999999996 88.8609999999999 125.85799999999995 89.24899999999991 131.87199999999996 C 89.6999999999999 138.85899999999995 90.30699999999992 145.83699999999996 90.7179999999999 152.82599999999996 C 91.1399999999999 160.00399999999996 91.4519999999999 167.18999999999997 91.7209999999999 174.37599999999998 C 91.8539999999999 177.93499999999997 93.4129999999999 179.60399999999998 96.9799999999999 179.60699999999997 C 107.0629999999999 179.61499999999998 117.1499999999999 179.43999999999997 127.2259999999999 179.70099999999996 C 130.7959999999999 179.79299999999998 132.4839999999999 178.13699999999997 133.7499999999999 175.31199999999995 C 135.63399999999987 171.10899999999995 137.50499999999988 166.89899999999994 139.43899999999988 162.71899999999997 C 143.3519999999999 154.26399999999995 147.36799999999988 145.85599999999997 151.22399999999988 137.37499999999997 C 155.85199999999986 127.19599999999997 160.29999999999987 116.93499999999997 164.92999999999986 106.75699999999998 C 169.564 96.573 174.322 86.45 179.025 76.301 z M 341.868 31.669 C 331.549 31.678 321.711 33.563 312.253 37.61 C 304.161 41.072 297.392 46.184 291.943 53.116 C 287.714 58.497 285.448 64.591 284.08 71.258 C 282.84299999999996 77.286 283.051 83.216 283.777 89.195 C 284.719 96.96 288.497 103.34299999999999 293.812 108.899 C 299.171 114.5 305.91700000000003 118.055 312.673 121.59700000000001 C 316.709 123.71300000000001 320.794 125.763 324.671 128.14600000000002 C 327.584 129.937 330.054 132.54000000000002 330.669 135.97400000000002 C 331.96 143.17900000000003 327.21999999999997 148.76500000000001 319.82599999999996 149.07800000000003 C 316.316 149.22600000000003 312.794 149.10200000000003 309.27799999999996 149.10600000000002 C 303.51 149.11200000000002 298.16299999999995 147.19400000000002 293.02899999999994 144.96000000000004 C 288.3449999999999 142.92200000000003 284.05499999999995 139.99400000000003 279.46899999999994 137.70600000000005 C 278.52599999999995 137.23500000000004 276.4989999999999 137.40500000000006 275.92799999999994 138.08400000000003 C 275.0849999999999 139.08700000000002 275.0779999999999 140.80500000000004 274.74999999999994 142.22700000000003 C 273.63499999999993 147.05900000000003 272.5199999999999 151.89100000000002 271.43199999999996 156.73000000000002 C 270.52299999999997 160.77200000000002 269.59299999999996 164.81000000000003 268.79299999999995 168.87400000000002 C 268.489 170.41600000000003 268.81899999999996 171.741 270.6859999999999 172.34400000000002 C 277.4749999999999 174.538 284.11999999999995 177.29200000000003 291.0299999999999 178.96500000000003 C 297.6719999999999 180.57300000000004 304.5469999999999 181.54900000000004 311.3709999999999 181.96800000000002 C 317.0109999999999 182.31400000000002 322.72799999999995 181.46200000000002 328.40899999999993 181.10500000000002 C 335.01899999999995 180.68900000000002 341.32199999999995 179.014 347.49199999999996 176.63400000000001 C 357.984 172.58800000000002 366.29099999999994 165.99200000000002 371.89899999999994 156.18200000000002 C 374.45799999999997 151.705 376.23499999999996 146.865 376.67799999999994 141.74200000000002 C 377.05799999999994 137.34400000000002 377.04299999999995 132.86400000000003 376.6809999999999 128.46300000000002 C 376.26699999999994 123.42400000000002 374.9099999999999 118.53200000000002 372.4319999999999 114.05500000000002 C 368.6349999999999 107.19700000000002 362.94999999999993 102.14900000000002 356.4439999999999 98.01900000000002 C 349.4859999999999 93.60200000000002 342.2739999999999 89.58100000000002 335.3859999999999 85.06100000000002 C 330.6149999999999 81.93000000000002 328.9349999999999 78.35100000000003 329.6849999999999 73.09700000000002 C 330.3079999999999 68.72900000000003 333.4899999999999 66.93700000000003 336.9659999999999 65.66300000000003 C 342.9869999999999 63.456000000000024 349.1949999999999 64.75000000000003 355.2949999999999 65.43300000000002 C 358.5899999999999 65.80200000000002 361.7749999999999 67.13000000000002 365.0689999999999 67.52700000000002 C 369.9209999999999 68.11200000000001 374.3559999999999 66.52500000000002 378.0909999999999 63.469000000000015 C 385.0429999999999 57.78100000000001 386.3319999999999 49.73300000000002 386.6549999999999 41.43100000000001 C 386.6839999999999 40.689000000000014 385.52699999999993 39.430000000000014 384.7009999999999 39.20000000000001 C 377.6699999999999 37.23500000000001 370.6679999999999 34.99400000000001 363.49799999999993 33.74500000000001 C 356.384 32.505 349.086 32.318 341.868 31.669 z M 242.013 227.109 C 313.174 227.109 384.33500000000004 227.109 455.496 227.109 C 459.342 227.109 459.43699999999995 227.025 459.75399999999996 223.15300000000002 C 459.79499999999996 222.656 459.76199999999994 222.15400000000002 459.76199999999994 221.65400000000002 C 459.76199999999994 215.73800000000003 459.76199999999994 209.82200000000003 459.76199999999994 203.90500000000003 C 459.76199999999994 199.60800000000003 459.76199999999994 199.60700000000003 455.46799999999996 199.60700000000003 C 313.2289999999999 199.60700000000003 170.99099999999999 199.60700000000003 28.751999999999953 199.60700000000003 C 28.168999999999954 199.60700000000003 27.577999999999953 199.66600000000003 27.002999999999954 199.59600000000003 C 25.345999999999954 199.39400000000003 24.808999999999955 200.32000000000002 24.743999999999954 201.75200000000004 C 24.571999999999953 205.55700000000004 24.281999999999954 209.36200000000005 24.275999999999954 213.16800000000003 C 24.269999999999953 216.63900000000004 24.637999999999952 220.11000000000004 24.720999999999954 223.58400000000003 C 24.805999999999955 227.10600000000002 24.740999999999953 227.10800000000003 28.279999999999955 227.10800000000003 C 99.525 227.109 170.769 227.109 242.013 227.109 z M 447.113 34.599 C 430.702 34.599 414.29 34.611999999999995 397.879 34.58 C 396.07300000000004 34.576 395.079 34.955 394.666 37.051 C 393.002 45.502 390.997 53.886 389.313 62.334 C 388.282 67.509 389.354 68.601 394.681 68.601 C 404.678 68.601 414.67499999999995 68.656 424.671 68.56 C 427.016 68.538 427.881 69.628 427.718 71.668 C 427.59700000000004 73.19200000000001 427.072 74.682 426.767 76.19500000000001 C 425.209 83.932 423.721 91.685 422.098 99.40800000000002 C 420.39300000000003 107.51700000000001 418.502 115.58700000000002 416.802 123.69700000000002 C 414.766 133.412 412.594 143.11100000000002 411.00300000000004 152.90200000000002 C 410.396 156.64100000000002 410.559 160.80800000000002 411.59100000000007 164.43300000000002 C 412.8070000000001 168.70600000000002 415.80100000000004 172.3 419.47600000000006 174.997 C 421.4080000000001 176.41500000000002 423.55600000000004 178.198 425.76400000000007 178.454 C 432.22900000000004 179.204 438.7710000000001 179.315 445.28600000000006 179.585 C 448.07900000000006 179.70100000000002 449.42400000000004 178.381 449.75500000000005 175.53 C 449.82200000000006 174.957 449.79100000000005 174.367 449.91200000000003 173.807 C 450.848 169.445 451.848 165.09699999999998 452.754 160.72799999999998 C 453.68 156.26299999999998 454.456 151.766 455.421 147.30999999999997 C 456.278 143.35499999999996 457.38 139.45299999999997 458.239 135.49799999999996 C 459.37899999999996 130.24999999999997 460.37699999999995 124.97199999999997 461.455 119.71099999999996 C 462.20599999999996 116.04799999999996 462.998 112.39299999999996 463.75899999999996 108.73099999999995 C 465.06499999999994 102.43999999999996 466.388 96.15299999999995 467.65199999999993 89.85399999999996 C 468.7269999999999 84.49899999999995 469.8909999999999 79.15399999999995 470.7129999999999 73.75799999999995 C 471.36099999999993 69.50499999999995 472.1189999999999 68.59999999999995 476.4529999999999 68.59999999999995 C 487.6989999999999 68.59999999999995 498.9459999999999 68.56199999999995 510.1919999999999 68.63899999999995 C 511.9629999999999 68.65099999999995 513.1769999999999 68.04999999999995 513.5659999999999 66.44599999999996 C 514.122 64.15199999999996 514.6909999999999 61.786999999999956 514.7059999999999 59.448999999999955 C 514.7529999999999 52.21599999999996 512.3059999999999 45.689999999999955 507.3019999999999 40.56899999999996 C 503.7759999999999 36.96099999999996 499.3839999999999 34.49099999999996 493.8459999999999 34.54499999999996 C 478.271 34.699 462.691 34.599 447.113 34.599 z M 513.276 141.138 C 515.24 140.787 517.137 140.326 519.0609999999999 140.126 C 526.0849999999999 139.397 533.1899999999999 139.17000000000002 540.1279999999999 137.96800000000002 C 547.6869999999999 136.65900000000002 555.1999999999999 134.83800000000002 562.189 131.41600000000003 C 569.0939999999999 128.03500000000003 574.53 123.21300000000002 577.587 116.00000000000003 C 580.244 109.73300000000003 579.782 103.18400000000003 578.688 96.79300000000003 C 577.0459999999999 87.19200000000004 570.681 81.24100000000004 562.014 77.59800000000004 C 557.256 75.59800000000004 552.267 74.63000000000004 547.092 73.90500000000004 C 539.6229999999999 72.86000000000004 532.382 73.30100000000004 525.098 74.62200000000004 C 516.8919999999999 76.11100000000005 509.14399999999995 78.81100000000004 501.924 83.12400000000004 C 493.601 88.09600000000003 487.256 94.87200000000004 482.248 103.07900000000004 C 477.664 110.59100000000004 474.159 118.62400000000004 472.941 127.26500000000004 C 471.80899999999997 135.30200000000005 471.71299999999997 143.46900000000005 473.67499999999995 151.58900000000006 C 476.70799999999997 164.13900000000007 484.10999999999996 172.71900000000005 495.90599999999995 177.62900000000005 C 500.66999999999996 179.61200000000005 505.71799999999996 180.37600000000003 510.79099999999994 181.31000000000006 C 519.0319999999999 182.82700000000006 527.097 181.91300000000007 535.1339999999999 180.80700000000007 C 540.9699999999999 180.00400000000008 546.699 178.22100000000006 552.3729999999999 176.53100000000006 C 555.4 175.62900000000008 558.9989999999999 175.09700000000007 560.41 171.61400000000006 C 561.2529999999999 169.53400000000005 561.5899999999999 167.23700000000005 562.0509999999999 165.01600000000005 C 563.1579999999999 159.69300000000004 564.2739999999999 154.37000000000006 565.2439999999999 149.02100000000004 C 565.7059999999999 146.47600000000006 565.18 146.16600000000005 562.584 146.96700000000004 C 559.0959999999999 148.04400000000004 555.553 148.96600000000004 552.1229999999999 150.20200000000006 C 544.5909999999999 152.91500000000005 536.8399999999999 154.21700000000004 528.8889999999999 153.51200000000006 C 525.6329999999999 153.22300000000007 522.2349999999999 152.40500000000006 519.3169999999999 150.97900000000007 C 515.604 149.169 513.034 146.056 513.276 141.138 z M 634.452 76.101 C 633.314 76.101 632.434 76.101 631.555 76.101 C 619.805 76.101 608.054 76.192 596.3059999999999 76.029 C 593.766 75.994 592.6159999999999 77.161 592.011 79.16799999999999 C 591.425 81.112 591.1519999999999 83.15299999999999 590.7719999999999 85.157 C 590.088 88.75999999999999 589.4639999999999 92.37599999999999 588.7439999999999 95.972 C 587.9619999999999 99.878 587.0439999999999 103.756 586.286 107.666 C 585.2779999999999 112.865 584.4179999999999 118.092 583.3979999999999 123.288 C 582.6009999999999 127.352 581.5559999999999 131.368 580.8019999999999 135.439 C 579.7029999999999 141.375 578.8939999999999 147.367 577.7289999999999 153.289 C 576.2839999999999 160.631 578.3499999999999 166.87199999999999 583.2349999999999 172.301 C 587.9229999999999 177.512 593.9719999999999 179.57999999999998 600.834 179.60399999999998 C 605.3739999999999 179.61999999999998 609.915 179.60699999999997 614.362 179.60699999999997 C 614.7959999999999 178.24999999999997 615.116 177.50099999999998 615.271 176.72099999999998 C 616.3 171.52999999999997 617.208 166.31399999999996 618.3199999999999 161.14199999999997 C 619.91 153.74799999999996 621.507 146.34999999999997 623.3499999999999 139.01699999999997 C 625.1069999999999 132.02699999999996 626.3929999999999 124.83699999999996 631.2579999999999 119.01599999999996 C 634.8679999999999 114.69599999999997 639.4259999999999 111.80099999999996 644.7819999999999 110.72799999999997 C 649.6539999999999 109.75199999999997 654.7449999999999 109.98499999999997 659.511 111.78299999999997 C 661.18 112.41199999999998 661.756 111.61599999999997 662.0609999999999 110.49399999999997 C 663.2099999999999 106.26199999999997 664.2629999999999 102.00099999999998 665.262 97.73099999999997 C 666.7059999999999 91.56199999999997 667.973 85.34899999999996 669.5089999999999 79.20299999999997 C 670.4659999999999 75.37199999999997 669.8029999999999 74.26199999999997 665.8349999999999 74.10099999999997 C 665.4209999999999 74.08399999999997 665.0049999999999 74.07299999999996 664.5959999999999 74.01599999999998 C 658.7609999999999 73.21299999999998 653.2659999999998 74.09199999999997 648.0749999999999 77.01599999999998 C 643.6039999999999 79.53399999999998 640.882 83.67999999999998 637.795 87.50499999999998 C 636.269 89.39599999999999 634.788 91.32299999999998 633.2869999999999 93.23399999999998 C 633.0889999999999 93.11899999999999 632.8919999999999 93.00399999999998 632.694 92.88899999999998 C 633.267 87.423 633.839 81.958 634.452 76.101 z M 243.863 179.606 C 245.113 179.606 246.362 179.606 247.612 179.606 C 252.649 179.606 252.757 179.636 254.041 174.971 C 255.09799999999998 171.131 255.914 167.222 256.741 163.323 C 258.448 155.275 260.06899999999996 147.209 261.77099999999996 139.16 C 262.71299999999997 134.703 263.794 130.275 264.729 125.816 C 265.914 120.167 267.106 114.517 268.12199999999996 108.837 C 269.00999999999993 103.87 270.32899999999995 98.905 269.251 93.785 C 267.471 85.33099999999999 263.52099999999996 80.195 255.15299999999996 77.588 C 248.04899999999995 75.375 240.75099999999998 76.264 233.51699999999997 76.14999999999999 C 232.94599999999997 76.14099999999999 232.01599999999996 76.67899999999999 231.85199999999998 77.166 C 231.33299999999997 78.702 231.07999999999998 80.331 230.75999999999996 81.931 C 230.02499999999995 85.602 229.33899999999997 89.28399999999999 228.57999999999996 92.951 C 227.83899999999994 96.532 227.01399999999995 100.09599999999999 226.25899999999996 103.67399999999999 C 225.18399999999997 108.76799999999999 224.15099999999995 113.87199999999999 223.07699999999997 118.966 C 222.32399999999998 122.538 221.51299999999998 126.098 220.75899999999996 129.67 C 219.68099999999995 134.771 218.60299999999995 139.873 217.57799999999995 144.98399999999998 C 216.51999999999995 150.25799999999998 215.10399999999996 155.41099999999997 216.15499999999994 160.98799999999997 C 217.66499999999994 168.99699999999996 222.12799999999996 174.28699999999998 229.33699999999993 177.66599999999997 C 234.007 179.855 238.931 179.638 243.863 179.606 z M 259.284 27.546 C 255.59099999999998 28.407999999999998 251.721 28.836 248.254 30.250999999999998 C 244.613 31.735999999999997 241.298 33.96 238.66199999999998 37.187 C 235.22299999999998 41.397 234.14999999999998 46.120999999999995 234.80599999999998 51.26 C 235.408 55.979 237.521 60.059 241.31699999999998 63.113 C 244.545 65.71 248.022 67.705 252.34799999999998 67.651 C 256.526 67.59899999999999 260.84499999999997 68.219 264.84799999999996 67.36099999999999 C 269.84099999999995 66.291 274.10299999999995 63.52999999999999 278.00699999999995 59.82799999999999 C 284.7169999999999 53.46199999999999 283.79599999999994 41.38599999999999 278.02199999999993 35.109999999999985 C 272.993 29.645 266.489 28.125 259.284 27.546 z M 579.776 211.535 C 576.9879999999999 211.535 574.463 211.587 571.9409999999999 211.522 C 568.521 211.434 565.1019999999999 211.259 561.684 211.114 C 559.512 211.022 560.131 212.822 559.9839999999999 213.9 C 559.9409999999999 214.214 561.1619999999999 215.028 561.824 215.053 C 565.068 215.175 568.318 215.084 571.5659999999999 215.115 C 576.8079999999999 215.16400000000002 576.2249999999999 214.28900000000002 576.2699999999999 219.967 C 576.2909999999998 222.64600000000002 575.0689999999998 223.489 572.6259999999999 223.52300000000002 C 566.7719999999998 223.60300000000004 560.9139999999999 223.41800000000003 555.0579999999999 223.35800000000003 C 552.6479999999999 223.33300000000003 551.7809999999998 222.51600000000002 551.7719999999999 220.10800000000003 C 551.7579999999999 216.19400000000005 551.7679999999999 212.27900000000002 551.7679999999999 208.36500000000004 C 551.7679999999999 203.11000000000004 551.7679999999999 203.11000000000004 557.0989999999999 203.11000000000004 C 564.4089999999999 203.11000000000004 571.718 203.11000000000004 579.338 203.11000000000004 C 578.704 201.35800000000003 580.7819999999999 198.69800000000004 577.309 198.64600000000004 C 569.732 198.53200000000004 562.15 198.52900000000005 554.573 198.64500000000004 C 550.6659999999999 198.70500000000004 547.768 201.94900000000004 547.7669999999999 205.85100000000003 C 547.765 210.68200000000002 547.924 215.51900000000003 547.7199999999999 220.34100000000004 C 547.535 224.70100000000005 550.3219999999999 227.41700000000003 554.5819999999999 227.55600000000004 C 560.9049999999999 227.76200000000003 567.2419999999998 227.70700000000005 573.5679999999999 227.57000000000005 C 577.1439999999999 227.49300000000005 579.4409999999999 225.40200000000004 579.7169999999999 221.87000000000006 C 579.987 218.406 579.776 214.907 579.776 211.535 z M 617.266 227.492 C 617.266 219.74699999999999 617.3779999999999 212.178 617.1949999999999 204.61599999999999 C 617.1419999999999 202.439 615.766 200.41 613.6189999999999 199.70499999999998 C 611.4809999999999 199.003 609.137 198.72199999999998 606.872 198.653 C 601.962 198.503 597.043 198.527 592.131 198.631 C 587.718 198.724 584.8349999999999 201.888 584.789 205.883 C 584.715 212.29600000000002 584.793 218.71 584.751 225.12400000000002 C 584.741 226.63800000000003 584.8729999999999 227.68500000000003 586.843 227.65400000000002 C 588.693 227.62500000000003 588.804 226.62100000000004 588.7819999999999 225.22700000000003 C 588.7379999999999 222.47900000000004 588.6639999999999 219.72300000000004 588.848 216.98600000000005 C 588.8919999999999 216.32800000000006 589.889 215.20300000000006 590.463 215.19300000000004 C 597.5409999999999 215.06900000000005 604.622 215.06900000000005 611.701 215.15000000000003 C 612.9970000000001 215.16500000000002 613.7620000000001 215.72400000000005 613.416 217.51700000000002 C 613.003 219.651 613.2750000000001 221.92100000000002 613.274 224.13100000000003 C 613.271 227.702 613.31 227.73 617.266 227.492 z M 516.437 215.106 C 523.763 215.106 530.917 215.114 538.071 215.087 C 538.524 215.08499999999998 539.024 214.896 539.422 214.66 C 542.168 213.032 544.061 208.109 543.188 204.954 C 542.102 201.02800000000002 539.154 198.626 535.2909999999999 198.614 C 527.794 198.591 520.2959999999999 198.666 512.8 198.567 C 510.82099999999997 198.541 510.19999999999993 199.15 510.22399999999993 201.137 C 510.32199999999995 209.05 510.27399999999994 216.964 510.25499999999994 224.878 C 510.2509999999999 226.36599999999999 510.11499999999995 227.695 512.343 227.65599999999998 C 514.4449999999999 227.61899999999997 514.27 226.34099999999998 514.2679999999999 224.97199999999998 C 514.2579999999999 218.558 514.3469999999999 212.14199999999997 514.218 205.73 C 514.175 203.582 514.9269999999999 203.03199999999998 516.958 203.06799999999998 C 523.12 203.177 529.286 203.10299999999998 535.4499999999999 203.10899999999998 C 538.4809999999999 203.11199999999997 538.7489999999999 203.38699999999997 538.765 206.38199999999998 C 538.788 210.70299999999997 538.531 211.08599999999998 535.33 211.10099999999997 C 530.082 211.12499999999997 524.8340000000001 211.10699999999997 519.586 211.10799999999998 C 516.083 211.109 516.083 211.111 516.437 215.106 z M 478.263 215.035 C 487.599 215.035 496.638 215.035 505.654 215.035 C 505.886 211.111 505.886 211.10999999999999 502.377 211.109 C 498.544 211.108 494.71000000000004 211.109 490.877 211.109 C 486.738 211.109 482.599 211.109 478.266 211.109 C 478.266 209.01500000000001 478.019 207.149 478.37 205.40300000000002 C 478.546 204.526 479.699 203.44700000000003 480.608 203.20700000000002 C 482.01 202.83700000000002 483.582 203.10800000000003 485.082 203.10800000000003 C 491.896 203.10800000000003 498.71 203.10800000000003 506.141 203.10800000000003 C 504.966 201.45000000000005 507.41 198.68100000000004 503.803 198.63600000000002 C 496.388 198.544 488.96 198.37800000000001 481.558 198.69800000000004 C 477.268 198.88300000000004 474.04699999999997 201.34100000000004 474.214 206.40000000000003 C 474.422 212.72600000000003 474.298 219.06500000000003 474.241 225.39800000000002 C 474.227 226.96400000000003 474.676 227.67000000000002 476.365 227.64700000000002 C 477.995 227.62500000000003 478.302 226.83200000000002 478.28000000000003 225.449 C 478.228 222.123 478.263 218.797 478.263 215.035 z" stroke-linecap="round" />
</g>
		<g transform="matrix(1 0 0 1 180.97 -18.96)"  >
<path style="stroke: none; stroke-width: 1; stroke-dasharray: none; stroke-linecap: butt; stroke-dashoffset: 0; stroke-linejoin: miter; stroke-miterlimit: 4; fill: rgb(0,0,0); fill-rule: nonzero; opacity: 1;" vector-effect="non-scaling-stroke"  transform=" translate(-528.22, -108.59)" d="M 540.825 104.663 C 540.6750000000001 109.02 538.455 112.003 535.269 114.01599999999999 C 531.662 116.29499999999999 527.701 117.999 523.268 118.13 C 522.554 118.151 521.777 118.33399999999999 521.153 118.67099999999999 C 519.256 119.695 517.2950000000001 119.175 516.182 117.89399999999999 C 515.4200000000001 117.01799999999999 515.394 114.88999999999999 515.879 113.64999999999999 C 517.977 108.28099999999999 520.753 103.38099999999999 525.8960000000001 100.14099999999999 C 529.1360000000001 98.1 532.5260000000001 97.666 536.128 98.151 C 538.37 98.452 541.326 102.258 540.825 104.663 z" stroke-linecap="round" />
</g>
		<g transform="matrix(1 0 0 1 253.98 79.74)"  >
<path style="stroke: none; stroke-width: 1; stroke-dasharray: none; stroke-linecap: butt; stroke-dashoffset: 0; stroke-linejoin: miter; stroke-miterlimit: 4; fill: rgb(0,0,0); fill-rule: nonzero; opacity: 1;" vector-effect="non-scaling-stroke"  transform=" translate(-601.23, -207.28)" d="M 601.363 203.108 C 604.44 203.108 607.522 203.205 610.5930000000001 203.071 C 612.349 202.994 612.9860000000001 203.95499999999998 613.2260000000001 205.34199999999998 C 613.4780000000001 206.797 613.6440000000001 208.29399999999998 613.5790000000001 209.76 C 613.5580000000001 210.22799999999998 612.6890000000001 211.03199999999998 612.1890000000001 211.048 C 604.821 211.272 597.45 211.399 590.0790000000001 211.499 C 589.6880000000001 211.504 588.9570000000001 211.072 588.95 210.828 C 588.8900000000001 208.776 588.7230000000001 206.672 589.1260000000001 204.693 C 589.2660000000001 204.006 590.8950000000001 203.241 591.8860000000001 203.18 C 595.035 202.986 598.203 203.108 601.363 203.108 z" stroke-linecap="round" />
</g>
		<g transform="matrix(1 0 0 1 -304.51 85.81)"  >
<circle style="stroke: none; stroke-width: 1; stroke-dasharray: none; stroke-linecap: butt; stroke-dashoffset: 0; stroke-linejoin: miter; stroke-miterlimit: 4; fill: rgb(0,0,0); fill-rule: nonzero; opacity: 1;" vector-effect="non-scaling-stroke"  cx="0" cy="0" r="6.487" />
</g>
		<g transform="matrix(1 0 0 1 -287.5 85.81)"  >
<circle style="stroke: none; stroke-width: 1; stroke-dasharray: none; stroke-linecap: butt; stroke-dashoffset: 0; stroke-linejoin: miter; stroke-miterlimit: 4; fill: rgb(0,0,0); fill-rule: nonzero; opacity: 1;" vector-effect="non-scaling-stroke"  cx="0" cy="0" r="6.487" />
</g>
		<g transform="matrix(1 0 0 1 -271.29 85.81)"  >
<circle style="stroke: none; stroke-width: 1; stroke-dasharray: none; stroke-linecap: butt; stroke-dashoffset: 0; stroke-linejoin: miter; stroke-miterlimit: 4; fill: rgb(0,0,0); fill-rule: nonzero; opacity: 1;" vector-effect="non-scaling-stroke"  cx="0" cy="0" r="6.487" />
</g>
		<g transform="matrix(1 0 0 1 -254.52 85.81)"  >
<circle style="stroke: none; stroke-width: 1; stroke-dasharray: none; stroke-linecap: butt; stroke-dashoffset: 0; stroke-linejoin: miter; stroke-miterlimit: 4; fill: rgb(0,0,0); fill-rule: nonzero; opacity: 1;" vector-effect="non-scaling-stroke"  cx="0" cy="0" r="6.487" />
</g>
		<g transform="matrix(1 0 0 1 -237.97 85.81)"  >
<circle style="stroke: none; stroke-width: 1; stroke-dasharray: none; stroke-linecap: butt; stroke-dashoffset: 0; stroke-linejoin: miter; stroke-miterlimit: 4; fill: rgb(0,0,0); fill-rule: nonzero; opacity: 1;" vector-effect="non-scaling-stroke"  cx="0" cy="0" r="6.487" />
</g>
		<g transform="matrix(1 0 0 1 -221.49 85.81)"  >
<circle style="stroke: none; stroke-width: 1; stroke-dasharray: none; stroke-linecap: butt; stroke-dashoffset: 0; stroke-linejoin: miter; stroke-miterlimit: 4; fill: rgb(0,0,0); fill-rule: nonzero; opacity: 1;" vector-effect="non-scaling-stroke"  cx="0" cy="0" r="6.487" />
</g>
		<g transform="matrix(1 0 0 1 -204.99 85.81)"  >
<circle style="stroke: none; stroke-width: 1; stroke-dasharray: none; stroke-linecap: butt; stroke-dashoffset: 0; stroke-linejoin: miter; stroke-miterlimit: 4; fill: rgb(0,0,0); fill-rule: nonzero; opacity: 1;" vector-effect="non-scaling-stroke"  cx="0" cy="0" r="6.487" />
</g>
		<g transform="matrix(1 0 0 1 -188.26 85.81)"  >
<circle style="stroke: none; stroke-width: 1; stroke-dasharray: none; stroke-linecap: butt; stroke-dashoffset: 0; stroke-linejoin: miter; stroke-miterlimit: 4; fill: rgb(0,0,0); fill-rule: nonzero; opacity: 1;" vector-effect="non-scaling-stroke"  cx="0" cy="0" r="6.487" />
</g>
		<g transform="matrix(1 0 0 1 -163.68 85.81)"  >
<circle style="stroke: none; stroke-width: 1; stroke-dasharray: none; stroke-linecap: butt; stroke-dashoffset: 0; stroke-linejoin: miter; stroke-miterlimit: 4; fill: rgb(0,0,0); fill-rule: nonzero; opacity: 1;" vector-effect="non-scaling-stroke"  cx="0" cy="0" r="6.487" />
</g>
		<g transform="matrix(1 0 0 1 -146.5 85.81)"  >
<circle style="stroke: none; stroke-width: 1; stroke-dasharray: none; stroke-linecap: butt; stroke-dashoffset: 0; stroke-linejoin: miter; stroke-miterlimit: 4; fill: rgb(0,0,0); fill-rule: nonzero; opacity: 1;" vector-effect="non-scaling-stroke"  cx="0" cy="0" r="6.487" />
</g>
		<g transform="matrix(1 0 0 1 -129.99 85.81)"  >
<circle style="stroke: none; stroke-width: 1; stroke-dasharray: none; stroke-linecap: butt; stroke-dashoffset: 0; stroke-linejoin: miter; stroke-miterlimit: 4; fill: rgb(0,0,0); fill-rule: nonzero; opacity: 1;" vector-effect="non-scaling-stroke"  cx="0" cy="0" r="6.487" />
</g>
		<g transform="matrix(1 0 0 1 -113.49 85.81)"  >
<circle style="stroke: none; stroke-width: 1; stroke-dasharray: none; stroke-linecap: butt; stroke-dashoffset: 0; stroke-linejoin: miter; stroke-miterlimit: 4; fill: rgb(0,0,0); fill-rule: nonzero; opacity: 1;" vector-effect="non-scaling-stroke"  cx="0" cy="0" r="6.487" />
</g>
		<g transform="matrix(1 0 0 1 -96.93 85.81)"  >
<circle style="stroke: none; stroke-width: 1; stroke-dasharray: none; stroke-linecap: butt; stroke-dashoffset: 0; stroke-linejoin: miter; stroke-miterlimit: 4; fill: rgb(0,0,0); fill-rule: nonzero; opacity: 1;" vector-effect="non-scaling-stroke"  cx="0" cy="0" r="6.487" />
</g>
		<g transform="matrix(1 0 0 1 -80.99 85.81)"  >
<circle style="stroke: none; stroke-width: 1; stroke-dasharray: none; stroke-linecap: butt; stroke-dashoffset: 0; stroke-linejoin: miter; stroke-miterlimit: 4; fill: rgb(0,0,0); fill-rule: nonzero; opacity: 1;" vector-effect="non-scaling-stroke"  cx="0" cy="0" r="6.487" />
</g>
		<g transform="matrix(1 0 0 1 -63.94 85.81)"  >
<circle style="stroke: none; stroke-width: 1; stroke-dasharray: none; stroke-linecap: butt; stroke-dashoffset: 0; stroke-linejoin: miter; stroke-miterlimit: 4; fill: rgb(0,0,0); fill-rule: nonzero; opacity: 1;" vector-effect="non-scaling-stroke"  cx="0" cy="0" r="6.487" />
</g>
		<g transform="matrix(1 0 0 1 -46.74 85.81)"  >
<circle style="stroke: none; stroke-width: 1; stroke-dasharray: none; stroke-linecap: butt; stroke-dashoffset: 0; stroke-linejoin: miter; stroke-miterlimit: 4; fill: rgb(0,0,0); fill-rule: nonzero; opacity: 1;" vector-effect="non-scaling-stroke"  cx="0" cy="0" r="6.487" />
</g>
		<g transform="matrix(1 0 0 1 -21.99 85.81)"  >
<circle style="stroke: none; stroke-width: 1; stroke-dasharray: none; stroke-linecap: butt; stroke-dashoffset: 0; stroke-linejoin: miter; stroke-miterlimit: 4; fill: rgb(0,0,0); fill-rule: nonzero; opacity: 1;" vector-effect="non-scaling-stroke"  cx="0" cy="0" r="6.487" />
</g>
		<g transform="matrix(1 0 0 1 -5.67 85.81)"  >
<circle style="stroke: none; stroke-width: 1; stroke-dasharray: none; stroke-linecap: butt; stroke-dashoffset: 0; stroke-linejoin: miter; stroke-miterlimit: 4; fill: rgb(0,0,0); fill-rule: nonzero; opacity: 1;" vector-effect="non-scaling-stroke"  cx="0" cy="0" r="6.487" />
</g>
		<g transform="matrix(1 0 0 1 11.01 85.81)"  >
<circle style="stroke: none; stroke-width: 1; stroke-dasharray: none; stroke-linecap: butt; stroke-dashoffset: 0; stroke-linejoin: miter; stroke-miterlimit: 4; fill: rgb(0,0,0); fill-rule: nonzero; opacity: 1;" vector-effect="non-scaling-stroke"  cx="0" cy="0" r="6.487" />
</g>
		<g transform="matrix(1 0 0 1 27.51 85.81)"  >
<circle style="stroke: none; stroke-width: 1; stroke-dasharray: none; stroke-linecap: butt; stroke-dashoffset: 0; stroke-linejoin: miter; stroke-miterlimit: 4; fill: rgb(0,0,0); fill-rule: nonzero; opacity: 1;" vector-effect="non-scaling-stroke"  cx="0" cy="0" r="6.487" />
</g>
		<g transform="matrix(1 0 0 1 44.02 85.81)"  >
<circle style="stroke: none; stroke-width: 1; stroke-dasharray: none; stroke-linecap: butt; stroke-dashoffset: 0; stroke-linejoin: miter; stroke-miterlimit: 4; fill: rgb(0,0,0); fill-rule: nonzero; opacity: 1;" vector-effect="non-scaling-stroke"  cx="0" cy="0" r="6.487" />
</g>
		<g transform="matrix(1 0 0 1 60.52 85.81)"  >
<circle style="stroke: none; stroke-width: 1; stroke-dasharray: none; stroke-linecap: butt; stroke-dashoffset: 0; stroke-linejoin: miter; stroke-miterlimit: 4; fill: rgb(0,0,0); fill-rule: nonzero; opacity: 1;" vector-effect="non-scaling-stroke"  cx="0" cy="0" r="6.487" />
</g>
		<g transform="matrix(1 0 0 1 77.51 85.81)"  >
<circle style="stroke: none; stroke-width: 1; stroke-dasharray: none; stroke-linecap: butt; stroke-dashoffset: 0; stroke-linejoin: miter; stroke-miterlimit: 4; fill: rgb(0,0,0); fill-rule: nonzero; opacity: 1;" vector-effect="non-scaling-stroke"  cx="0" cy="0" r="6.487" />
</g>
		<g transform="matrix(1 0 0 1 94.27 85.81)"  >
<circle style="stroke: none; stroke-width: 1; stroke-dasharray: none; stroke-linecap: butt; stroke-dashoffset: 0; stroke-linejoin: miter; stroke-miterlimit: 4; fill: rgb(0,0,0); fill-rule: nonzero; opacity: 1;" vector-effect="non-scaling-stroke"  cx="0" cy="0" r="6.487" />
</g>
		<g transform="matrix(1 0 0 1 -304.51 85.81)"  >
<circle style="stroke: none; stroke-width: 1; stroke-dasharray: none; stroke-linecap: butt; stroke-dashoffset: 0; stroke-linejoin: miter; stroke-miterlimit: 4; fill: rgb(255,255,255); fill-rule: nonzero; opacity: 1;" vector-effect="non-scaling-stroke"  cx="0" cy="0" r="2.487" />
</g>
		<g transform="matrix(1 0 0 1 -271.29 85.81)"  >
<circle style="stroke: none; stroke-width: 1; stroke-dasharray: none; stroke-linecap: butt; stroke-dashoffset: 0; stroke-linejoin: miter; stroke-miterlimit: 4; fill: rgb(255,255,255); fill-rule: nonzero; opacity: 1;" vector-effect="non-scaling-stroke"  cx="0" cy="0" r="2.487" />
</g>
		<g transform="matrix(1 0 0 1 -237.97 85.81)"  >
<circle style="stroke: none; stroke-width: 1; stroke-dasharray: none; stroke-linecap: butt; stroke-dashoffset: 0; stroke-linejoin: miter; stroke-miterlimit: 4; fill: rgb(255,255,255); fill-rule: nonzero; opacity: 1;" vector-effect="non-scaling-stroke"  cx="0" cy="0" r="2.487" />
</g>
		<g transform="matrix(1 0 0 1 -221.49 85.81)"  >
<circle style="stroke: none; stroke-width: 1; stroke-dasharray: none; stroke-linecap: butt; stroke-dashoffset: 0; stroke-linejoin: miter; stroke-miterlimit: 4; fill: rgb(255,255,255); fill-rule: nonzero; opacity: 1;" vector-effect="non-scaling-stroke"  cx="0" cy="0" r="2.487" />
</g>
		<g transform="matrix(1 0 0 1 -163.68 85.81)"  >
<circle style="stroke: none; stroke-width: 1; stroke-dasharray: none; stroke-linecap: butt; stroke-dashoffset: 0; stroke-linejoin: miter; stroke-miterlimit: 4; fill: rgb(255,255,255); fill-rule: nonzero; opacity: 1;" vector-effect="non-scaling-stroke"  cx="0" cy="0" r="2.487" />
</g>
		<g transform="matrix(1 0 0 1 -129.99 85.81)"  >
<circle style="stroke: none; stroke-width: 1; stroke-dasharray: none; stroke-linecap: butt; stroke-dashoffset: 0; stroke-linejoin: miter; stroke-miterlimit: 4; fill: rgb(255,255,255); fill-rule: nonzero; opacity: 1;" vector-effect="non-scaling-stroke"  cx="0" cy="0" r="2.487" />
</g>
		<g transform="matrix(1 0 0 1 -96.99 85.81)"  >
<circle style="stroke: none; stroke-width: 1; stroke-dasharray: none; stroke-linecap: butt; stroke-dashoffset: 0; stroke-linejoin: miter; stroke-miterlimit: 4; fill: rgb(255,255,255); fill-rule: nonzero; opacity: 1;" vector-effect="non-scaling-stroke"  cx="0" cy="0" r="2.487" />
</g>
		<g transform="matrix(1 0 0 1 -80.99 85.81)"  >
<circle style="stroke: none; stroke-width: 1; stroke-dasharray: none; stroke-linecap: butt; stroke-dashoffset: 0; stroke-linejoin: miter; stroke-miterlimit: 4; fill: rgb(255,255,255); fill-rule: nonzero; opacity: 1;" vector-effect="non-scaling-stroke"  cx="0" cy="0" r="2.487" />
</g>
		<g transform="matrix(1 0 0 1 -46.74 85.81)"  >
<circle style="stroke: none; stroke-width: 1; stroke-dasharray: none; stroke-linecap: butt; stroke-dashoffset: 0; stroke-linejoin: miter; stroke-miterlimit: 4; fill: rgb(255,255,255); fill-rule: nonzero; opacity: 1;" vector-effect="non-scaling-stroke"  cx="0" cy="0" r="2.487" />
</g>
		<g transform="matrix(1 0 0 1 -21.99 85.81)"  >
<circle style="stroke: none; stroke-width: 1; stroke-dasharray: none; stroke-linecap: butt; stroke-dashoffset: 0; stroke-linejoin: miter; stroke-miterlimit: 4; fill: rgb(255,255,255); fill-rule: nonzero; opacity: 1;" vector-effect="non-scaling-stroke"  cx="0" cy="0" r="2.487" />
</g>
		<g transform="matrix(1 0 0 1 11.01 85.81)"  >
<circle style="stroke: none; stroke-width: 1; stroke-dasharray: none; stroke-linecap: butt; stroke-dashoffset: 0; stroke-linejoin: miter; stroke-miterlimit: 4; fill: rgb(255,255,255); fill-rule: nonzero; opacity: 1;" vector-effect="non-scaling-stroke"  cx="0" cy="0" r="2.487" />
</g>
		<g transform="matrix(1 0 0 1 27.51 85.81)"  >
<circle style="stroke: none; stroke-width: 1; stroke-dasharray: none; stroke-linecap: butt; stroke-dashoffset: 0; stroke-linejoin: miter; stroke-miterlimit: 4; fill: rgb(255,255,255); fill-rule: nonzero; opacity: 1;" vector-effect="non-scaling-stroke"  cx="0" cy="0" r="2.487" />
</g>
		<g transform="matrix(1 0 0 1 44.02 85.81)"  >
<circle style="stroke: none; stroke-width: 1; stroke-dasharray: none; stroke-linecap: butt; stroke-dashoffset: 0; stroke-linejoin: miter; stroke-miterlimit: 4; fill: rgb(255,255,255); fill-rule: nonzero; opacity: 1;" vector-effect="non-scaling-stroke"  cx="0" cy="0" r="2.487" />
</g>
</g>
</g>
</svg>