<?xml version="1.0" standalone="no"?>
<!DOCTYPE svg PUBLIC "-//W3C//DTD SVG 20010904//EN"
 "http://www.w3.org/TR/2001/REC-SVG-20010904/DTD/svg10.dtd">
<svg version="1.0" xmlns="http://www.w3.org/2000/svg"
 width="700.000000pt" height="700.000000pt" viewBox="0 0 700.000000 700.000000"
 preserveAspectRatio="xMidYMid meet">
<metadata>
Created by potrace 1.14, written by Peter Selinger 2001-2017
</metadata>
<g transform="translate(0.000000,700.000000) scale(0.100000,-0.100000)"
fill="#000000" stroke="none">
<path d="M1810 6848 c-81 -22 -144 -98 -290 -348 -25 -41 -47 -77 -50 -80 -11
-10 -162 -272 -246 -429 -83 -154 -87 -159 -130 -176 -60 -23 -186 -107 -247
-163 -135 -127 -233 -308 -268 -492 -8 -47 -12 -254 -13 -737 l-1 -671 -79
-52 c-118 -77 -246 -210 -334 -345 -54 -85 -111 -240 -136 -375 -18 -94 -14
-308 7 -405 45 -201 145 -389 284 -529 57 -59 169 -147 229 -181 l30 -17 1
-249 0 -250 -62 -43 c-118 -82 -182 -155 -236 -267 -179 -369 31 -804 441
-915 60 -16 148 -17 1140 -18 l1075 -1 36 130 c43 153 57 189 100 251 37 54
48 66 109 115 174 141 429 153 617 30 128 -84 191 -183 247 -385 20 -72 40
-132 46 -136 13 -8 2127 -5 2166 3 206 43 386 174 471 342 44 87 53 113 66
185 32 179 -8 358 -111 500 -40 54 -135 142 -190 175 l-50 30 1 250 1 251 82
54 c85 55 206 169 268 251 101 135 172 302 201 474 13 79 13 298 0 360 -65
311 -228 557 -477 719 l-74 49 0 631 c1 578 -2 716 -18 801 -20 108 -92 263
-171 365 -84 109 -241 229 -359 274 -37 14 -46 25 -91 113 -119 234 -456 793
-513 850 -80 81 -217 91 -313 22 -16 -11 -131 -150 -254 -307 -124 -158 -231
-294 -238 -302 -7 -8 -42 -53 -77 -100 -36 -47 -68 -87 -71 -90 -3 -3 -24 -31
-48 -62 l-42 -57 -743 1 -743 0 -89 115 c-86 110 -282 362 -307 393 -7 8 -65
83 -130 165 -176 222 -193 241 -241 265 -51 24 -125 32 -176 18z"/>
</g>
</svg>
